<mxfile host="app.diagrams.net" modified="2023-07-12T14:41:58.329Z" agent="Mozilla/5.0 (Macintosh; Intel Mac OS X 10_15_7) AppleWebKit/537.36 (KHTML, like Gecko) Chrome/113.0.0.0 Safari/537.36" version="21.6.1" etag="vlAxJz4p9hDN29NWcy-o" type="github">
  <diagram name="Page-1" id="bxFf1jz5wBRQyE3n01tN">
    <mxGraphModel>
      <root>
        <mxCell id="0" />
        <mxCell id="1" parent="0" />
      </root>
    </mxGraphModel>
  </diagram>
</mxfile>
